<svg width="250" height="250" xmlns="http://www.w3.org/2000/svg" fill="none">
 <g transform="rotate(-6 125 125)">
  <title>Layer 1</title>
  <path id="svg_2" fill="#FF2D2B" d="m26,5l5.35462,39.41077l3.87564,0.76778l9.12433,-33.27772l-18.35457,-6.90082l-0.00001,0z"/>
  <path stroke="null" id="svg_3" fill="#FF2D2B" d="m44.64308,8.07462l-10.21105,36.93603l12.08559,7.5804l29.06463,-30.90591l-30.93918,-13.61052z"/>
  <path id="svg_6" fill="#FF2D2B" d="m80.4023,15.50155l23.90615,28.75538l-49.11981,16.66586l-10.16582,-9.46879l35.37948,-35.95245z"/>
  <path id="svg_11" fill="#FF2D2B" d="m110.12343,41.42266l17.32119,33.64965l-47.50029,18.10432l-25.06396,-32.89067l55.24306,-18.8633z"/>
  <path id="svg_12" fill="#FF2D2B" d="m162.92,48.71l37.17143,7.62927l-46.85605,27.65842l-1.26,-9.78615l10.94462,-25.50154z"/>
  <path id="svg_13" fill="#FF2D2B" d="m199.14092,56.16614l7.99524,37.11771l-46.66754,-0.31612l1.04051,-14.58461l37.63179,-22.21697z"/>
  <path id="svg_17" fill="#FF2D2B" d="m138.01,71.69l50.85,-9.04l-32.70825,35.04214l-25.31175,11.99786l-7.55,-21.55l-27.21,-6.52l41.93,-9.93z"/>
  <path id="svg_18" fill="#FF2D2B" d="m130.79415,108.199l-25.40914,10.811l-26.0289,-25.5426l15.3589,-14.3474l29.22928,8.93478l6.84986,20.14422z"/>
  <path id="svg_19" fill="#FF2D2B" d="m152.58681,98.47055l34.94242,24.68099l-62.05308,12.77615l-19.82462,-17.39154l46.93527,-20.0656z"/>
  <path id="svg_23" fill="#FF2D2B" d="m213.46113,203.83986l-78.98439,-37.76513l-4.24966,-19.41671l72.75982,11.16256l10.47423,46.01927z"/>
  <path id="svg_27" fill="#FF2D2B" d="m218.92,246.4l-83.81549,-74.52833l-0.54808,-6.13621l73.21921,33.54135l11.14435,47.1232l0.00001,0z"/>
  <path id="svg_32" fill="#FF2D2B" d="m70.12286,116.20434l0.28714,20.52566l17.9,-17.72l17.37,0l-25.53269,-25.41038l-10.02445,22.60473z"/>
  <path id="svg_33" fill="#FF2D2B" d="m73.79,119.5l12.83,-5.53l19.06,5.04l-17.37,0l-14.52,0.49z"/>
  <path id="svg_34" fill="#FF2D2B" d="m73.79,119.5l-3.38,17.23l17.43669,-17.618l-14.05669,0.388z"/>
  <path transform="rotate(1.22785 167.44 141.285)" id="svg_36" fill="#FF2D2B" d="m180.85975,123.80116l29.59483,34.96846l-79.79655,-11.23382l-6.2333,-11.56243l56.43501,-12.17221z"/>
 </g>
</svg>
