<svg xmlns="http://www.w3.org/2000/svg" width="256" height="256" fill="none" viewBox="0 0 256 256">
<!-- SVG created with Arrow, by QuiverAI (https://quiver.ai) -->
  <g stroke="#000" stroke-width="3" stroke-linejoin="round">
  <path d="m112.3 206.1 12.22 8.83 39.4-7.44-33.51-4.9-5.89 12.34-12.22-8.83z" fill="#A0A0A0"/>
  <path d="m110.1 161.8 2.18 44.33 12.22 8.83 28.42-54.4-42.82 1.24z" fill="url(#paint0_linear_1055_10551)"/>
  <path d="m110.4 171.3 42.53-10-42.82 0.46 0.29 9.54z" fill="#9C9C9C"/>
  <path d="m5 163.8 167.7-79.55 10.3 2.76 3.52-40.5 48.42-6.47 11.8 4.09 4.26 13.59-11.28-10.57-19.92 9.8 18.14 49-56 50.35-27.78 1.16-0.16 1.3-149 5.04z" fill="url(#paint1_linear_1055_10551)"/>
  <path d="m186.5 46.47 26.27 13.92 33.95-16.3-11.8-4.09-48.42 6.47z" fill="#F4F4F4"/>
  <path d="m246.7 44.09-7.02 3.02 10.96 10.57-3.94-13.59z" fill="#9C9C9C"/>
  <path d="m237.9 105.9-47.15-17.79-8.85 68.14 56-50.35z" fill="url(#paint2_linear_1055_10551)"/>
  <path d="m5 163.8 167.7-30.08 18.04-45.56-185.8 75.64z" fill="url(#paint3_linear_1055_10551)"/>
  <path d="m5 163.8 149-2.85 15.93-27.23-164.9 30.08z" fill="url(#paint4_linear_1055_10551)"/>
  <path d="m5 163.8 167.7-79.55 10.43 2.68-0.34 3.9-177.8 72.97z" fill="#9C9C9C"/>
  <path d="m154.2 157.4 27.78-1.16 8.85-68.14-20.86 45.56-15.77 23.74z" fill="url(#paint5_linear_1055_10551)"/>
  </g>
  <defs>
    <linearGradient id="paint0_linear_1055_10551" x1="131.5" x2="131.5" y1="161.8" y2="214.9" gradientUnits="userSpaceOnUse">
      <stop stop-color="#B3B3B3" offset="0"/>
      <stop stop-color="#BABABA" offset="1"/>
    </linearGradient>
    <linearGradient id="paint1_linear_1055_10551" x1="128" x2="128" y1="40" y2="163.8" gradientUnits="userSpaceOnUse">
      <stop stop-color="#E7E7E7" offset="0"/>
      <stop stop-color="#CDCDCD" offset="1"/>
    </linearGradient>
    <linearGradient id="paint2_linear_1055_10551" x1="210.7" x2="210.7" y1="88.12" y2="156.3" gradientUnits="userSpaceOnUse">
      <stop stop-color="#BBBBBB" offset="0"/>
      <stop stop-color="#C1C1C1" offset="1"/>
    </linearGradient>
    <linearGradient id="paint3_linear_1055_10551" x1="97.89" x2="97.89" y1="88.12" y2="163.8" gradientUnits="userSpaceOnUse">
      <stop stop-color="#FFFFFF" offset="0"/>
      <stop stop-color="#E7E7E7" offset="1"/>
    </linearGradient>
    <linearGradient id="paint4_linear_1055_10551" x1="88.14" x2="88.14" y1="133.7" y2="163.8" gradientUnits="userSpaceOnUse">
      <stop stop-color="#CACACA" offset="0"/>
      <stop stop-color="#C6C6C6" offset="1"/>
    </linearGradient>
    <linearGradient id="paint5_linear_1055_10551" x1="172.5" x2="172.5" y1="88.12" y2="157.4" gradientUnits="userSpaceOnUse">
      <stop stop-color="#ACACAC" offset="0"/>
      <stop stop-color="#A2A2A2" offset="1"/>
    </linearGradient>
  </defs>
</svg>