<svg xmlns="http://www.w3.org/2000/svg" width="250" height="250" viewBox="0 40 250 170" fill="none">
  <g stroke="#000" stroke-width="3" stroke-linejoin="round">
<path d="M 119.84,104.64 L 5.31,47.74 L 38.82,114.32 L 74.91,133.31 L 112.23,152.71 L 114.19,159.11 L 81.49,188.64 L 92.06,193.76 L 113.18,201.26 L 117.52,199.96 L 138.38,192.33 L 148.75,187.61 L 132.36,165.11 L 146.01,147.48 L 171.41,135.13 L 207.42,118.45 L 244.85,61.62 L 150.75,105.62 L 146.18,113.81 L 147.81,80.44 L 132.69,76.33 L 121.82,105.02 L 119.84,104.64 Z" fill="#FFFFFF"/>
<path d="M 5.31,47.74 L 38.82,114.32 L 121.82,104.64 L 5.31,47.74 Z" fill="#DEDEDE"/>
<path d="M 38.82,114.32 L 121.82,104.64 L 74.91,133.31 L 38.82,114.32 Z" fill="#EDEDED"/>
<path d="M 112.23,151.66 L 121.82,104.64 L 74.91,133.31 L 112.23,151.66 Z" fill="#FFFFFF"/>
<path d="M 150.75,105.62 L 207.42,118.45 L 171.41,135.62 L 150.75,105.62 Z" fill="#EDEDED"/>
<path d="M 150.75,105.62 L 244.69,61.62 L 207.42,118.45 L 150.75,105.62 Z" fill="#DEDEDE"/>
<path d="M 150.75,105.62 L 171.41,135.62 L 146.01,147.96 L 150.75,105.62 Z" fill="#FFFFFF"/>
<path d="M 132.69,76.33 L 123.32,108.71 L 136.97,142.81 L 137.46,85.72 L 132.69,76.33 Z" fill="#EDEDED"/>
<path d="M 132.69,76.33 L 148.66,77.32 L 147.81,88.71 L 132.69,76.33 Z" fill="#DEDEDE"/>
<path d="M 132.69,76.33 L 147.81,88.71 L 148.66,77.32 L 132.69,76.33 Z" fill="#DEDEDE"/>
<path d="M 137.06,85.72 L 147.81,88.71 L 145.68,139.82 L 139.19,146.71 L 137.06,85.72 Z" fill="#FFFFFF"/>
<path d="M 123.32,108.71 L 135.33,145.06 L 112.23,151.66 L 121.82,104.64 L 123.32,108.71 Z" fill="#CECECE"/>
<path d="M 150.75,105.62 L 145.68,139.82 L 118.35,180.31 L 139.19,142.81 L 146.18,135.79 L 150.75,105.62 Z" fill="#BEBEBE"/>
<path d="M 113.73,158.62 L 81.49,188.64 L 92.06,193.76 L 115.16,162.2 L 113.73,158.62 Z" fill="#CECECE"/>
<path d="M 112.23,151.66 L 118.35,180.31 L 135.33,145.06 L 121.82,104.64 L 112.23,151.66 Z" fill="#CECECE"/>
<path d="M 132.36,165.11 L 148.75,187.61 L 138.38,192.33 L 129.32,170.06 L 132.36,165.11 Z" fill="#CECECE"/>
<path d="M 92.06,193.76 L 113.18,201.26 L 118.35,180.31 L 115.16,162.2 L 92.06,193.76 Z" fill="#FFFFFF"/>
<path d="M 118.35,180.31 L 120.99,179.01 L 117.52,199.96 L 113.18,201.26 L 118.35,180.31 Z" fill="#FCFCFC"/>
<path d="M 129.32,170.06 L 138.38,192.33 L 118.35,200.45 L 121.82,179.01 L 129.32,170.06 Z" fill="#FFFFFF"/>
  </g>
</svg>
